<?xml version="1.0" encoding="UTF-8"?>
<svg version="1.1" xmlns="http://www.w3.org/2000/svg" width="270" height="270">
<path d="M0 0 C89.1 0 178.2 0 270 0 C270 89.1 270 178.2 270 270 C180.9 270 91.8 270 0 270 C0 180.9 0 91.8 0 0 Z " fill="#F8FAEE" transform="translate(0,0)"/>
<path d="M0 0 C1.26231445 -0.01260864 2.52462891 -0.02521729 3.82519531 -0.03820801 C5.2024796 -0.03104196 6.57975881 -0.02283643 7.95703125 -0.01367188 C9.37988551 -0.01636963 10.80273796 -0.02025441 12.22558594 -0.02526855 C15.21160388 -0.03116571 18.19714324 -0.0226047 21.18310547 -0.00390625 C24.97791891 0.0187186 28.77159031 0.00586859 32.56636047 -0.01819611 C35.50930049 -0.03279134 38.4519792 -0.02798337 41.39492798 -0.01768494 C42.79171895 -0.0150466 44.18853493 -0.01818356 45.58529663 -0.02760315 C59.43759147 -0.10043495 71.39273269 2.66538715 81.703125 12.33007812 C90.86732042 22.1052199 93.28684058 32.39647337 93.046875 45.43164062 C92.51754882 56.8134702 86.49546913 65.09436961 78.58203125 72.76757812 C70.29037814 79.82312215 62.30593009 80.7691658 51.76953125 80.51757812 C51.78903284 85.92602006 51.8409963 91.33285328 51.92211914 96.74072266 C51.94521268 98.57754739 51.95967445 100.41450292 51.96508789 102.25146484 C51.97444121 104.90349011 52.01556759 107.55348276 52.0625 110.20507812 C52.05856735 111.01686523 52.0546347 111.82865234 52.05058289 112.66503906 C52.19953402 118.58123616 53.7534712 123.06565521 57.76953125 127.51757812 C61.13062795 129.65243073 63.69894537 129.64532912 67.671875 129.39257812 C71.43867342 127.82132515 73.88928174 124.30316639 75.66035461 120.71054077 C76.43990114 118.73977653 77.13926419 116.7575727 77.8125 114.74804688 C78.06703445 114.02643875 78.32156891 113.30483063 78.58381653 112.56135559 C79.38703525 110.27995729 80.17324936 107.99321947 80.95703125 105.70507812 C81.75346442 103.39986658 82.55357402 101.09614277 83.36238098 98.79524231 C83.86312741 97.36894809 84.35645322 95.94002258 84.84159851 94.50834656 C86.54555276 89.62956737 86.54555276 89.62956737 88.76953125 88.51757812 C90.84149756 89.24936678 92.88038645 90.07656816 94.89453125 90.95507812 C96.53808594 91.66470703 96.53808594 91.66470703 98.21484375 92.38867188 C99.05789062 92.76121094 99.9009375 93.13375 100.76953125 93.51757812 C99.2255113 101.46928089 96.71913273 108.9512936 94.01953125 116.58007812 C93.601875 117.80791016 93.18421875 119.03574219 92.75390625 120.30078125 C89.00309613 130.91854709 84.65666854 138.50008137 74.76953125 144.26757812 C68.81609538 146.62550349 61.44945384 146.62872358 55.36328125 144.79101562 C53.3550516 143.84096852 51.59296351 142.78350121 49.76953125 141.51757812 C48.73828125 140.83695313 47.70703125 140.15632812 46.64453125 139.45507812 C41.65281668 135.07878042 38.09800544 127.97264646 36.76953125 121.51757812 C36.68666835 120.1135876 36.65166504 118.70623165 36.65600586 117.29980469 C36.65608139 116.47925598 36.65615692 115.65870728 36.65623474 114.81329346 C36.66139603 113.93711365 36.66655731 113.06093384 36.671875 112.15820312 C36.67328995 111.25382507 36.6747049 110.34944702 36.67616272 109.41766357 C36.68175214 106.53426786 36.69430272 103.6509503 36.70703125 100.76757812 C36.71204762 98.810548 36.71661029 96.85351665 36.72070312 94.89648438 C36.73171812 90.10348559 36.74897551 85.3105451 36.76953125 80.51757812 C31.81953125 80.51757812 26.86953125 80.51757812 21.76953125 80.51757812 C21.76953125 75.56757813 21.76953125 70.61757812 21.76953125 65.51757812 C22.87353271 65.50823242 23.97753418 65.49888672 25.11499023 65.48925781 C29.24722275 65.44910675 33.37873024 65.38328075 37.51049805 65.31005859 C39.29197816 65.28199363 41.07357944 65.26070773 42.85522461 65.24658203 C57.7672398 65.5456338 57.7672398 65.5456338 70.5871582 58.87231445 C75.38865546 53.92479267 77.43141542 48.46401605 78.20703125 41.70507812 C77.88241095 34.84747431 75.64799091 27.73529159 70.51953125 23.01757812 C63.31528723 17.16858793 55.00804077 17.05537053 46.17578125 17.00585938 C44.39488098 16.97893257 44.39488098 16.97893257 42.57800293 16.95146179 C38.80854783 16.89754283 35.03921806 16.86352122 31.26953125 16.83007812 C28.70440972 16.79688891 26.13930468 16.76239778 23.57421875 16.7265625 C17.30608024 16.64182648 11.03797773 16.57492693 4.76953125 16.51757812 C4.76953125 22.12757812 4.76953125 27.73757812 4.76953125 33.51757812 C6.41469727 33.49139404 8.05986328 33.46520996 9.75488281 33.43823242 C15.85256374 33.34780382 21.95018529 33.29035423 28.04833984 33.24291992 C30.68874067 33.21775933 33.32907175 33.1836275 35.96923828 33.14038086 C39.76221922 33.07980149 43.55428023 33.05138283 47.34765625 33.02929688 C49.12127533 32.99058723 49.12127533 32.99058723 50.9307251 32.95109558 C59.08255969 32.948299 59.08255969 32.948299 62.54980469 35.8215332 C64.21189829 39.4953722 63.83769614 41.67218452 62.76953125 45.51757812 C61.54777527 47.20722961 61.54777527 47.20722961 59.76953125 48.51757812 C57.320755 48.87834167 57.320755 48.87834167 54.38012695 48.8581543 C53.27921219 48.8579277 52.17829742 48.85770111 51.04402161 48.85746765 C49.8564476 48.8419838 48.6688736 48.82649994 47.4453125 48.81054688 C46.22877487 48.80630203 45.01223724 48.80205719 43.75883484 48.79768372 C39.86634354 48.78086663 35.97436654 48.74320771 32.08203125 48.70507812 C29.44597101 48.69003526 26.80990267 48.67634617 24.17382812 48.6640625 C17.70555315 48.63095312 11.23757894 48.58072317 4.76953125 48.51757812 C4.77619308 49.65905807 4.78285492 50.80053802 4.78971863 51.97660828 C4.85052641 62.7325224 4.89550234 73.48840166 4.92496777 84.24444866 C4.94062547 89.77428538 4.96186587 95.30398336 4.99584961 100.83374023 C5.028439 106.1699898 5.04638348 111.50610588 5.05416298 116.84244728 C5.05970722 118.87862054 5.07053369 120.91478648 5.08672142 122.95090294 C5.10848992 125.80230894 5.11149839 128.65316298 5.11010742 131.50463867 C5.12628616 132.76807602 5.12628616 132.76807602 5.14279175 134.05703735 C5.1184724 138.66248048 4.86566941 141.83991972 1.76953125 145.51757812 C-1.60546875 146.64257812 -1.60546875 146.64257812 -5.23046875 146.51757812 C-7.85158278 144.86880493 -8.80629564 144.16452279 -10.23046875 141.51757812 C-10.98714995 137.16366667 -10.90259492 132.84676755 -10.86157227 128.43725586 C-10.86671327 127.09326229 -10.87399592 125.74927546 -10.883255 124.40530396 C-10.90175319 120.76263115 -10.888842 117.12069124 -10.86916471 113.47804904 C-10.85276676 109.66423629 -10.86159252 105.85046953 -10.86668396 102.03663635 C-10.87120312 95.63343612 -10.85534502 89.23052818 -10.82739258 82.82739258 C-10.79532755 75.42511158 -10.79536212 68.02335732 -10.81260735 60.62103885 C-10.82847096 53.4977352 -10.82174091 46.37462462 -10.80467033 39.25132942 C-10.7977989 36.22067181 -10.7988331 33.19016891 -10.80621529 30.15951347 C-10.81387674 26.59128828 -10.80175773 23.02366265 -10.77436638 19.4555397 C-10.76419572 17.52168918 -10.77366604 15.58776668 -10.78369141 13.65391541 C-10.77096695 12.50290344 -10.75824249 11.35189148 -10.74513245 10.16600037 C-10.74232553 9.16589652 -10.7395186 8.16579268 -10.73662663 7.13538265 C-9.56427043 1.07205833 -5.5918114 0.01603692 0 0 Z " fill="#093344" transform="translate(71.23046875,62.482421875)"/>
<path d="M0 0 C4.04160556 -0.05831395 8.08310205 -0.09370212 12.125 -0.125 C13.83816406 -0.15013672 13.83816406 -0.15013672 15.5859375 -0.17578125 C17.24882812 -0.18544922 17.24882812 -0.18544922 18.9453125 -0.1953125 C19.96125488 -0.20578613 20.97719727 -0.21625977 22.02392578 -0.22705078 C27.82075759 0.21520136 31.08350958 1.83872893 35 6 C35.886875 6.5775 36.77375 7.155 37.6875 7.75 C48.3884231 14.7394637 56.52213747 24.70734024 59.55859375 37.3203125 C61.91175688 51.60588687 58.39151324 63.84825655 51 76 C50.34 76 49.68 76 49 76 C47.78125 74.50390625 47.78125 74.50390625 46.5 72.5625 C44.7134637 69.77468153 44.7134637 69.77468153 42 68 C42.33 68.99 42.66 69.98 43 71 C42.34 71.66 41.68 72.32 41 73 C43.61941217 74.74627478 45.03824877 75.38722388 48 76 C47.49597656 76.54914063 46.99195313 77.09828125 46.47265625 77.6640625 C43.83314463 81.85087403 45.49447998 86.18109136 46.48876953 90.81689453 C48.18232712 98.04888687 50.25623802 105.1867081 52.26269531 112.33642578 C53.97564845 118.5246108 55.51317194 124.75389935 57 131 C57.35771484 132.48113281 57.35771484 132.48113281 57.72265625 133.9921875 C58.74573674 138.55878519 59.55628608 142.44230505 58 147 C56.375 148.9375 56.375 148.9375 54 150 C47.67272727 149.67272727 47.67272727 149.67272727 45 147 C43.37681652 142.94204131 43 140.4860774 43 136 C34.09 136 25.18 136 16 136 C18 127 18 127 21 120 C26.61 120 32.22 120 38 120 C35.79504577 110.29820138 33.4361313 100.64576314 31 91 C30.66616955 89.66679104 30.33253487 88.3335327 30 87 C28.35 86.67 26.7 86.34 25 86 C24.01 89.96 23.02 93.92 22 98 C17.38 96.35 12.76 94.7 8 93 C7.20335937 95.30097656 6.40671875 97.60195312 5.5859375 99.97265625 C4.79525734 102.22132076 3.99921024 104.46801702 3.20263672 106.71459961 C2.65599204 108.26536121 2.11486288 109.81807937 1.57958984 111.37280273 C-4.07489814 127.77292384 -4.07489814 127.77292384 -10 133 C-14.38262654 134.59534286 -16.98687546 134.46759594 -21.25 132.5 C-25.65121335 128.49889695 -28.16997138 124.56975494 -28.45410156 118.62524414 C-28.45347682 117.01174289 -28.43138686 115.39814266 -28.390625 113.78515625 C-28.38496521 112.92941513 -28.37930542 112.07367401 -28.37347412 111.19200134 C-28.35123507 108.48157789 -28.30106425 105.77251809 -28.25 103.0625 C-28.22991878 101.215514 -28.21167086 99.3685071 -28.1953125 97.52148438 C-28.15141147 93.0138043 -28.08247269 88.50713267 -28 84 C-26.980271 83.88027832 -25.96054199 83.76055664 -24.90991211 83.63720703 C-23.55317653 83.46944811 -22.19648957 83.30129571 -20.83984375 83.1328125 C-20.16997437 83.05522705 -19.50010498 82.9776416 -18.80993652 82.89770508 C-9.75648984 81.7525395 -3.04029002 78.00626726 3.17578125 71.38671875 C11.46754616 60.53817836 12.6958357 50.13067732 12 37 C10.14625695 26.14460638 3.4063934 17.6645281 -5 11 C-5.66 10.34 -6.32 9.68 -7 9 C-3.13304322 9 -0.4911548 10.41909971 3 12 C1.76736651 8.30209954 0.79947549 8.0645154 -2.5625 6.3125 C-3.80193359 5.65701172 -3.80193359 5.65701172 -5.06640625 4.98828125 C-5.70449219 4.66214844 -6.34257812 4.33601563 -7 4 C-4.35261084 2.5393715 -3.10551666 2 0 2 C0 1.34 0 0.68 0 0 Z " fill="#F6F8EE" transform="translate(151,59)"/>
<path d="M0 0 C7.50728554 -0.09931282 15.01418363 -0.17167979 22.52197266 -0.21972656 C25.07282173 -0.23976872 27.62362527 -0.26700993 30.17431641 -0.30175781 C33.8533048 -0.3506003 37.53168259 -0.37304381 41.2109375 -0.390625 C42.34050873 -0.41127014 43.47007996 -0.43191528 44.63388062 -0.45318604 C52.76034637 -0.4554586 59.80725623 0.81624173 66.40234375 5.82421875 C71.55317945 12.07599644 74.72550741 18.70140306 74.34765625 26.96484375 C73.03964922 34.62182874 68.63505646 41.59846663 62.39550781 46.17749023 C54.11720455 50.60799514 44.53619414 49.42783011 35.4375 49.25 C33.64780641 49.22990747 31.85809108 49.21166156 30.06835938 49.1953125 C25.71169722 49.15152721 21.35609106 49.08265224 17 49 C17 53.95 17 58.9 17 64 C21.95 64 26.9 64 32 64 C32 64.33 32 64.66 32 65 C27.05 65 22.1 65 17 65 C17.01047363 66.86769043 17.02094727 68.73538086 17.03173828 70.65966797 C17.06395523 76.82235303 17.08695441 82.9850182 17.10362434 89.14776421 C17.11407298 92.8851783 17.1282517 96.6225015 17.15087891 100.35986328 C17.17256904 103.964905 17.18456049 107.56985917 17.18975449 111.17496109 C17.19345716 112.55211898 17.20068734 113.92927194 17.21146011 115.30639267 C17.22592335 117.23139545 17.22681648 119.15648587 17.22705078 121.08154297 C17.231492 122.17852509 17.23593323 123.2755072 17.24050903 124.4057312 C17 127 17 127 15 129 C11.375 129.125 11.375 129.125 8 129 C8 129.66 8 130.32 8 131 C7.01 131 6.02 131 5 131 C5 130.01 5 129.02 5 128 C3.02 128.33 1.04 128.66 -1 129 C-0.67 96.99 -0.34 64.98 0 32 C27.3125 31.75 27.3125 31.75 35.9309082 31.70214844 C38.17922022 31.67279072 40.42751379 31.64196711 42.67578125 31.609375 C43.84798218 31.60824707 45.02018311 31.60711914 46.22790527 31.60595703 C47.34419312 31.5861377 48.46048096 31.56631836 49.6105957 31.54589844 C51.06620659 31.53257477 51.06620659 31.53257477 52.55122375 31.51898193 C55.12325045 31.20233519 55.12325045 31.20233519 56.84855652 29.19244385 C58.5793364 25.89689547 57.84980164 23.52994529 57 20 C54.41074331 17.41074331 53.32930568 17.73053843 49.72412109 17.68115234 C48.6231308 17.66128265 47.5221405 17.64141296 46.38778687 17.62094116 C45.19505157 17.60938995 44.00231628 17.59783875 42.7734375 17.5859375 C40.94650864 17.55688828 40.94650864 17.55688828 39.08267212 17.5272522 C35.1801867 17.46731785 31.27767201 17.42101529 27.375 17.375 C24.7343619 17.33683301 22.09373643 17.29778205 19.453125 17.2578125 C12.9688521 17.16160482 6.48452092 17.07762492 0 17 C0 11.39 0 5.78 0 0 Z " fill="#F4F7EE" transform="translate(76,79)"/>
<path d="M0 0 C0.91394531 0.29519531 1.82789063 0.59039062 2.76953125 0.89453125 C15.92452162 5.67355856 23.93505261 14.70994877 29.98828125 27.0078125 C34.99680928 37.97435255 34.03092714 50.86696314 30 62 C28.18153029 65.78500821 26.18172366 69.41321807 24 73 C23.34 73 22.68 73 22 73 C21.34 71.948125 20.68 70.89625 20 69.8125 C16.65443071 65.02755788 12.55339033 62.66901084 7 61 C1.26114989 60.42611499 -4.430182 60.35865267 -10 62 C-9.6390625 61.35417969 -9.278125 60.70835938 -8.90625 60.04296875 C-4.13620059 50.35711842 -2.46443935 39.15537183 -5.7265625 28.66308594 C-9.48632742 19.18602632 -14.55569463 12.49036677 -22.6875 6.25 C-23.45449219 5.65703125 -24.22148437 5.0640625 -25.01171875 4.453125 C-26.93377015 2.96365694 -26.93377015 2.96365694 -29 2 C-29 1.34 -29 0.68 -29 0 C-19.34607236 -2.57438071 -9.5564459 -3.33857352 0 0 Z " fill="#F29E32" transform="translate(178,62)"/>
<path d="M0 0 C4.76248082 1.95474959 6.82268385 6.07316843 9.00976562 10.55566406 C10.94262109 15.32680531 11.8756904 20.35260022 12.9375 25.375 C14.66739373 33.22864042 16.45956375 41.02181945 18.6875 48.75 C24.73346948 69.95526066 24.73346948 69.95526066 23 77 C21.375 78.9375 21.375 78.9375 19 80 C12.67272727 79.67272727 12.67272727 79.67272727 10 77 C8.37681652 72.94204131 8 70.4860774 8 66 C-0.91 66 -9.82 66 -19 66 C-17 57 -17 57 -14 50 C-8.39 50 -2.78 50 3 50 C0.79504577 40.29820138 -1.5638687 30.64576314 -4 21 C-4.33383045 19.66679104 -4.66746513 18.3335327 -5 17 C-6.65 16.67 -8.3 16.34 -10 16 C-10.99 19.96 -11.98 23.92 -13 28 C-15.14898232 27.2169216 -17.29412095 26.42328757 -19.4375 25.625 C-20.63246094 25.18414062 -21.82742187 24.74328125 -23.05859375 24.2890625 C-26 23 -26 23 -27 21 C-25.23627939 13.56924268 -22.82347344 5.82275911 -16.51171875 1.0859375 C-11.15539303 -1.22986118 -5.66192965 -0.96197834 0 0 Z " fill="#A4C5BC" transform="translate(186,129)"/>
<path d="M0 0 C3.3 0 6.6 0 10 0 C10 4.95 10 9.9 10 15 C14.95 15 19.9 15 25 15 C25 15.33 25 15.66 25 16 C20.05 16 15.1 16 10 16 C10.01047363 17.86769043 10.02094727 19.73538086 10.03173828 21.65966797 C10.06395523 27.82235303 10.08695441 33.9850182 10.10362434 40.14776421 C10.11407298 43.8851783 10.1282517 47.6225015 10.15087891 51.35986328 C10.17256904 54.964905 10.18456049 58.56985917 10.18975449 62.17496109 C10.19345716 63.55211898 10.20068734 64.92927194 10.21146011 66.30639267 C10.22592335 68.23139545 10.22681648 70.15648587 10.22705078 72.08154297 C10.231492 73.17852509 10.23593323 74.2755072 10.24050903 75.4057312 C10 78 10 78 8 80 C4.375 80.125 4.375 80.125 1 80 C-0.50252915 76.9949417 -0.12992759 73.90743067 -0.11352539 70.61279297 C-0.11367142 69.85172241 -0.11381744 69.09065186 -0.1139679 68.30651855 C-0.11326993 65.78504611 -0.10548294 63.26364708 -0.09765625 60.7421875 C-0.09579166 58.99626709 -0.09436795 57.25034616 -0.09336853 55.50442505 C-0.08954659 50.90454672 -0.07971905 46.30469986 -0.06866455 41.70483398 C-0.05844349 37.0128624 -0.05386942 32.32088575 -0.04882812 27.62890625 C-0.03809651 18.41925699 -0.02102394 9.20963111 0 0 Z " fill="#A3C2BB" transform="translate(83,128)"/>
<path d="M0 0 C11.88 0 23.76 0 36 0 C36 12.08637716 33.25332735 20.7194489 27 31 C26.34 31 25.68 31 25 31 C24.34 29.948125 23.68 28.89625 23 27.8125 C19.67126909 23.02805587 15.47761895 20.79581746 10 19 C5.95070901 18.35611981 2.11255865 18.14346135 -2 18 C-1.34 12.06 -0.68 6.12 0 0 Z " fill="#F86643" transform="translate(175,104)"/>
<path d="M0 0 C0.66 0 1.32 0 2 0 C1.67 46.2 1.34 92.4 1 140 C-2.09734138 135.8702115 -2.37365553 135.35023815 -2.32952881 130.57936096 C-2.32668381 129.47883392 -2.32383881 128.37830688 -2.32090759 127.24443054 C-2.30234207 126.04172012 -2.28377655 124.8390097 -2.26464844 123.59985352 C-2.25693924 122.32958313 -2.24923004 121.05931274 -2.24128723 119.75054932 C-2.21968743 116.26893399 -2.17924795 112.78776508 -2.13518429 109.30637097 C-2.09197935 105.66127859 -2.06520794 102.016064 -2.03643799 98.37083435 C-1.98575034 92.24831377 -1.92371223 86.12599432 -1.85400391 80.00366211 C-1.76464526 72.15061883 -1.69370644 64.29752369 -1.62871933 56.44424534 C-1.57268221 49.687638 -1.50839438 42.9311128 -1.44266987 36.17459369 C-1.42188951 34.00542055 -1.40219248 31.83623948 -1.38262177 29.66705513 C-1.34547115 25.62113664 -1.29974353 21.57535921 -1.25292969 17.52954102 C-1.24246109 16.32885483 -1.23199249 15.12816864 -1.22120667 13.89109802 C-1.20708237 12.78775116 -1.19295807 11.6844043 -1.17840576 10.54762268 C-1.16805676 9.59138787 -1.15770775 8.63515306 -1.14704514 7.64994144 C-1.00071985 5.01297254 -0.58401107 2.57243843 0 0 Z " fill="#F3FEFB" transform="translate(60,65)"/>
<path d="M0 0 C1.3125 2.5625 1.3125 2.5625 2 5 C2.33 5 2.66 5 3 5 C3.12375 6.134375 3.2475 7.26875 3.375 8.4375 C3.58125 9.613125 3.7875 10.78875 4 12 C4.66 12.33 5.32 12.66 6 13 C6.05437607 14.58294782 6.09296271 16.16644256 6.125 17.75 C6.14820313 18.63171875 6.17140625 19.5134375 6.1953125 20.421875 C5.99139502 23.1135858 5.36551721 24.69904974 4 27 C2.68 27 1.36 27 0 27 C-0.33 27.66 -0.66 28.32 -1 29 C-2.25699799 26.48600402 -2.46967082 24.22147148 -2.875 21.4375 C-3.74206657 16.03451054 -5.11132504 11.1206321 -7 6 C-7.66666667 4 -8.33333333 2 -9 0 C-5.69183862 -1.10272046 -3.29888363 -1.21537818 0 0 Z " fill="#F8FAEF" transform="translate(167,81)"/>
<path d="M0 0 C0.33 0.66 0.66 1.32 1 2 C1.66 2 2.32 2 3 2 C3.33 1.34 3.66 0.68 4 0 C3.25 5.75 3.25 5.75 1 8 C0.83322718 11.58343976 0.83322718 11.58343976 1 15 C1.66 15.33 2.32 15.66 3 16 C1.35 20.62 -0.3 25.24 -2 30 C-2.99 30 -3.98 30 -5 30 C-5 29.01 -5 28.02 -5 27 C-5.99 27 -6.98 27 -8 27 C-8 27.66 -8 28.32 -8 29 C-8.66 28.67 -9.32 28.34 -10 28 C-6.7 18.76 -3.4 9.52 0 0 Z " fill="#EEF2EC" transform="translate(169,165)"/>
<path d="M0 0 C0.66 0 1.32 0 2 0 C4 3 4 3 5 16 C15.89 15.67 26.78 15.34 38 15 C38.495 16.485 38.495 16.485 39 18 C27.45 18 15.9 18 4 18 C4 21.96 4 25.92 4 30 C2.75 34.1875 2.75 34.1875 1 37 C-1.109375 37.67578125 -1.109375 37.67578125 -3 38 C-2.6390625 37.35417969 -2.278125 36.70835938 -1.90625 36.04296875 C1.44196496 29.24423227 2.47256021 23.71156619 2.4375 16.1875 C2.43492187 15.38787842 2.43234375 14.58825684 2.4296875 13.7644043 C2.30699276 8.85099112 1.55023701 4.66316273 0 0 Z " fill="#FB963E" transform="translate(171,86)"/>
<path d="M0 0 C4.95 1.98 4.95 1.98 10 4 C10 5.32 10 6.64 10 8 C8.80375 7.9175 7.6075 7.835 6.375 7.75 C4.11406633 7.86647036 4.11406633 7.86647036 2 9 C-0.56926706 12.76790001 -2.3165519 16.77224966 -4 21 C-4.99 20.34 -5.98 19.68 -7 19 C-5.17272355 12.36920137 -2.91484678 6.2317414 0 0 Z " fill="#0C3543" transform="translate(159,151)"/>
<path d="M0 0 C5.77568688 7.28238781 4.80061696 17.08101294 4 26 C3.06921394 29.61746548 1.86218102 32.76612315 0 36 C-0.66 35.34 -1.32 34.68 -2 34 C-1.01 31.36 -0.02 28.72 1 26 C-1.64 26.66 -4.28 27.32 -7 28 C-6.67 23.05 -6.34 18.1 -6 13 C-5.67 13 -5.34 13 -5 13 C-4.67 15.97 -4.34 18.94 -4 22 C-2.35 21.67 -0.7 21.34 1 21 C1.93385816 18.19842552 2.16354595 16.34552197 2.1875 13.4375 C2.20876953 12.25994141 2.20876953 12.25994141 2.23046875 11.05859375 C2.19167509 8.7756455 2.19167509 8.7756455 0 7 C-0.125 3.375 -0.125 3.375 0 0 Z " fill="#FDF5E9" transform="translate(170,86)"/>
<path d="M0 0 C9.330853 0.34558715 16.03494586 4.58355778 22.375 11.3125 C25.90054763 15.50890082 28.15301285 19.86002917 30 25 C29.34 25.33 28.68 25.66 28 26 C28 25.01 28 24.02 28 23 C27.34 23 26.68 23 26 23 C22.88002198 19.69649386 22 18.67590167 22 14 C21.01 14 20.02 14 19 14 C19 13.34 19 12.68 19 12 C18.34 12 17.68 12 17 12 C16.67 11.34 16.34 10.68 16 10 C15.01 10.495 15.01 10.495 14 11 C13.34 10.67 12.68 10.34 12 10 C12 8.68 12 7.36 12 6 C10.4221875 5.5978125 10.4221875 5.5978125 8.8125 5.1875 C5.41877734 4.13043884 2.89782292 3.01969476 0 1 C0 0.67 0 0.34 0 0 Z " fill="#15323D" transform="translate(132,65)"/>
<path d="M0 0 C1.2065625 0.0309375 1.2065625 0.0309375 2.4375 0.0625 C1.4375 2.0625 1.4375 2.0625 -1.4375 3.1875 C-5.5625 4.0625 -5.5625 4.0625 -16.5625 4.0625 C-16.5625 16.9325 -16.5625 29.8025 -16.5625 43.0625 C-18.71532245 38.7568551 -18.83808773 35.7086598 -18.79296875 31.05078125 C-18.79251053 30.28195114 -18.79205231 29.51312103 -18.7915802 28.72099304 C-18.78856633 27.10133311 -18.78070597 25.48167585 -18.76831055 23.86206055 C-18.74998845 21.37343173 -18.74780142 18.88517378 -18.74804688 16.39648438 C-18.74313387 14.82291343 -18.73730651 13.24934501 -18.73046875 11.67578125 C-18.72935593 10.92790848 -18.7282431 10.18003571 -18.72709656 9.40950012 C-18.67857161 4.17857161 -18.67857161 4.17857161 -17.5625 3.0625 C-13.94628521 2.48390563 -10.31948478 2.0311432 -6.6875 1.5625 C-3.53140516 1.05752483 -3.03713388 0.07407644 0 0 Z " fill="#07232E" transform="translate(139.5625,138.9375)"/>
<path d="M0 0 C0.33 3.3 0.66 6.6 1 10 C0.34 10 -0.32 10 -1 10 C-0.67 11.32 -0.34 12.64 0 14 C-1.32 14.33 -2.64 14.66 -4 15 C-5.66666667 10 -7.33333333 5 -9 0 C-5.67465243 -1.10844919 -3.37817425 -0.84454356 0 0 Z " fill="#F1F7EB" transform="translate(167,81)"/>
<path d="M0 0 C4.04160556 -0.05831395 8.08310205 -0.09370212 12.125 -0.125 C13.83816406 -0.15013672 13.83816406 -0.15013672 15.5859375 -0.17578125 C16.69453125 -0.18222656 17.803125 -0.18867187 18.9453125 -0.1953125 C20.46922607 -0.21102295 20.46922607 -0.21102295 22.02392578 -0.22705078 C25.34022335 0.02595633 27.95328155 0.66591753 31 2 C31.495 3.485 31.495 3.485 32 5 C31.20078125 4.7834375 30.4015625 4.566875 29.578125 4.34375 C18.74058059 1.59620353 9.02127553 1.5304966 -2 3 C-2 3.66 -2 4.32 -2 5 C-1.2575 5.2475 -0.515 5.495 0.25 5.75 C3.20124062 7.09147301 4.84814974 8.60905526 7 11 C5.68 11 4.36 11 3 11 C2.67 10.34 2.34 9.68 2 9 C0.51132724 8.07133836 -1.01554706 7.20294664 -2.5625 6.375 C-3.38878906 5.92898437 -4.21507812 5.48296875 -5.06640625 5.0234375 C-5.70449219 4.68570313 -6.34257812 4.34796875 -7 4 C-4.35261084 2.5393715 -3.10551666 2 0 2 C0 1.34 0 0.68 0 0 Z " fill="#FCF4D7" transform="translate(151,59)"/>
<path d="M0 0 C-6.53110048 0.12559809 -6.53110048 0.12559809 -8.75 -0.46875 C-12.04712234 -1.24723722 -15.37871311 -1.36812524 -18.75 -1.5625 C-19.44738281 -1.60568359 -20.14476562 -1.64886719 -20.86328125 -1.69335938 C-22.57531922 -1.79889596 -24.28763561 -1.8998991 -26 -2 C-25.64945001 0.46676227 -25.64945001 0.46676227 -25 3 C-23.08333333 4.16666667 -23.08333333 4.16666667 -21 5 C-20.01 6.485 -20.01 6.485 -19 8 C-22.06875309 6.5360077 -24.90434743 4.85990364 -27.75 3 C-28.54921875 2.484375 -29.3484375 1.96875 -30.171875 1.4375 C-31.07679688 0.7259375 -31.07679688 0.7259375 -32 0 C-32 -0.66 -32 -1.32 -32 -2 C-21.65086072 -4.75977047 -9.36245995 -6.24163996 0 0 Z " fill="#DBAB5E" transform="translate(181,64)"/>
<path d="M0 0 C0.99 0.33 1.98 0.66 3 1 C1.52240282 8.65590185 -0.92698095 15.7567703 -3.625 23.0625 C-4.25535156 24.79016602 -4.25535156 24.79016602 -4.8984375 26.55273438 C-5.92728295 29.37036794 -6.96123455 32.18601184 -8 35 C-9.13537816 31.59386551 -8.88383272 31.11922858 -7.625 27.9375 C-6.06013317 23.61818431 -5.54474883 19.63922726 -5.30859375 15.06640625 C-5 13 -5 13 -3 11 C-2.59952556 8.67724823 -2.2602896 6.34260643 -2 4 C-1.34 4 -0.68 4 0 4 C0 2.68 0 1.36 0 0 Z " fill="#102A36" transform="translate(169,155)"/>
<path d="M0 0 C11.55 0 23.1 0 35 0 C35 1.32 35 2.64 35 4 C34.34 4 33.68 4 33 4 C33 3.34 33 2.68 33 2 C22.44 2 11.88 2 1 2 C1 3.98 1 5.96 1 8 C0.67 8 0.34 8 0 8 C0 5.36 0 2.72 0 0 Z " fill="#F17039" transform="translate(175,104)"/>
<path d="M0 0 C0.99 0.66 1.98 1.32 3 2 C2.566875 2.8353125 2.566875 2.8353125 2.125 3.6875 C0.96344797 5.99136638 0.96344797 5.99136638 0.0625 8.4375 C-1.09252599 11.22315093 -2.18599451 13.58132601 -4 16 C-5.66014616 16.36442233 -7.32706064 16.69972883 -9 17 C-10.36020151 18.96758273 -10.36020151 18.96758273 -11 21 C-11 20.34 -11 19.68 -11 19 C-11.66 19 -12.32 19 -13 19 C-13.33 19.66 -13.66 20.32 -14 21 C-14.33 20.01 -14.66 19.02 -15 18 C-14.49210938 17.59910156 -13.98421875 17.19820312 -13.4609375 16.78515625 C-7.65587544 11.99108814 -3.37509843 6.75019686 0 0 Z " fill="#F2F2EE" transform="translate(161,119)"/>
<path d="M0 0 C0.66 0 1.32 0 2 0 C5.28141464 4.92212196 4.32763922 10.46681692 4.3125 16.25 C4.32861328 17.46558594 4.34472656 18.68117188 4.36132812 19.93359375 C4.36776526 31.7392922 4.36776526 31.7392922 1 37 C-1.1875 37.9375 -1.1875 37.9375 -3 38 C-2.6390625 37.35417969 -2.278125 36.70835938 -1.90625 36.04296875 C1.44196496 29.24423227 2.47256021 23.71156619 2.4375 16.1875 C2.43492187 15.38787842 2.43234375 14.58825684 2.4296875 13.7644043 C2.30699276 8.85099112 1.55023701 4.66316273 0 0 Z " fill="#D87C62" transform="translate(171,86)"/>
<path d="M0 0 C0.66 0 1.32 0 2 0 C5.61196435 9.28790833 5.97786683 15.71831073 2 25 C0.85017398 20.90996141 0.88905744 16.96822949 0.9375 12.75 C0.94201172 12.00492188 0.94652344 11.25984375 0.95117188 10.4921875 C0.96290754 8.6614236 0.9808415 6.83070127 1 5 C0.34 5 -0.32 5 -1 5 C-0.67 3.35 -0.34 1.7 0 0 Z " fill="#E1EDEB" transform="translate(145,91)"/>
<path d="M0 0 C2.79619132 2.79619132 2.25822389 4.55884713 2.265625 8.46875 C2.26820313 9.76167969 2.27078125 11.05460937 2.2734375 12.38671875 C2.26924805 13.06138184 2.26505859 13.73604492 2.26074219 14.43115234 C2.2500407 16.49216157 2.26063943 18.55229919 2.2734375 20.61328125 C2.27085937 21.90621094 2.26828125 23.19914062 2.265625 24.53125 C2.26336914 25.72298828 2.26111328 26.91472656 2.25878906 28.14257812 C2 31 2 31 0 33 C-0.66 32.67 -1.32 32.34 -2 32 C-1.855625 31.35675781 -1.71125 30.71351562 -1.5625 30.05078125 C0.44669248 20.26992061 0.56582973 10.84235829 -1 1 C-0.67 0.67 -0.34 0.34 0 0 Z " fill="#FCE7CC" transform="translate(210,91)"/>
<path d="M0 0 C1.32 0.66 2.64 1.32 4 2 C4 2.66 4 3.32 4 4 C4.66 4 5.32 4 6 4 C6.33 5.32 6.66 6.64 7 8 C7.66 8 8.32 8 9 8 C12.42857143 15.28571429 12.42857143 15.28571429 12 20 C9.77156101 17.13675347 7.88415793 14.19845755 6.0625 11.0625 C3.93598236 7.47234429 1.74124775 4.16297817 -1 1 C-0.67 0.67 -0.34 0.34 0 0 Z " fill="#FDF0C9" transform="translate(197,71)"/>
<path d="M0 0 C0.66 0 1.32 0 2 0 C2.45164525 7.11341265 1.32797915 11.71546794 -2 18 C-2.99 17.34 -3.98 16.68 -5 16 C-3.41078475 10.63904723 -1.81027062 5.29156027 0 0 Z " fill="#1C3E4C" transform="translate(157,154)"/>
<path d="M0 0 C0.33 0 0.66 0 1 0 C1.02505615 0.69037354 1.0501123 1.38074707 1.07592773 2.09204102 C1.1926566 5.24901409 1.31503178 8.40574457 1.4375 11.5625 C1.47681641 12.64853516 1.51613281 13.73457031 1.55664062 14.85351562 C1.77201355 20.30410746 2.08159222 25.62075441 3 31 C2.34 31.33 1.68 31.66 1 32 C-1.53440814 25.33508698 -1.02500354 19.09856223 -0.625 12.0625 C-0.56828125 10.90169922 -0.5115625 9.74089844 -0.453125 8.54492188 C-0.31243361 5.69592114 -0.16110018 2.84790737 0 0 Z " fill="#173743" transform="translate(109,159)"/>
<path d="M0 0 C1.98362069 2.91708924 1.9876191 4.12380904 1.625 7.75 C1.41875 8.8225 1.2125 9.895 1 11 C0.01 11 -0.98 11 -2 11 C-2 8 -2 8 -1 6 C-1.66 6 -2.32 6 -3 6 C-3.66 7.32 -4.32 8.64 -5 10 C-6.32 9.67 -7.64 9.34 -9 9 C-8.51789063 8.60167969 -8.03578125 8.20335937 -7.5390625 7.79296875 C-6.90742188 7.26316406 -6.27578125 6.73335937 -5.625 6.1875 C-4.99851563 5.66542969 -4.37203125 5.14335937 -3.7265625 4.60546875 C-1.7778952 2.91774261 -1.7778952 2.91774261 0 0 Z " fill="#ECEFEA" transform="translate(158,195)"/>
<path d="M0 0 C3.04328042 1.03246106 5.25671726 2.27872455 8 4 C7.34 4.66 6.68 5.32 6 6 C6 5.34 6 4.68 6 4 C5.00419922 3.80083984 5.00419922 3.80083984 3.98828125 3.59765625 C-2.50585938 2.29882812 -2.50585938 2.29882812 -9 1 C-9 1.66 -9 2.32 -9 3 C-10.65 3 -12.3 3 -14 3 C-14.33 2.34 -14.66 1.68 -15 1 C-10.58367583 -1.20816209 -4.80372901 -0.43060202 0 0 Z " fill="#FDE9D5" transform="translate(185,122)"/>
<path d="M0 0 C3.35620271 1.38877354 5.07298728 2.91677965 7 6 C7 6.66 7 7.32 7 8 C7.66 8.33 8.32 8.66 9 9 C7.54052295 8.93993922 6.08220728 8.8511311 4.625 8.75 C3.40683594 8.68039063 3.40683594 8.68039063 2.1640625 8.609375 C0 8 0 8 -1.2890625 5.953125 C-1.52367187 5.30859375 -1.75828125 4.6640625 -2 4 C-1.34 3.34 -0.68 2.68 0 2 C0 1.34 0 0.68 0 0 Z " fill="#FBE9D7" transform="translate(193,127)"/>
<path d="M0 0 C4.56733709 1.28393664 7.66066952 2.98543888 11.3125 6 C12.17488281 6.70125 13.03726563 7.4025 13.92578125 8.125 C16 10 16 10 17 12 C14.42090014 10.76203207 11.96031405 9.39252444 9.5 7.9375 C7.42855881 6.72213622 6.06732879 6.01273788 3.6875 5.5625 C3.130625 5.376875 2.57375 5.19125 2 5 C0.75 2.4375 0.75 2.4375 0 0 Z " fill="#E0A555" transform="translate(182,64)"/>
<path d="M0 0 C4.82945236 0.44925138 7.54736544 1.54736544 11 5 C11 5.99 11 6.98 11 8 C12.65 8 14.3 8 16 8 C15.34 9.32 14.68 10.64 14 12 C13.34 12 12.68 12 12 12 C11.278125 10.9275 10.55625 9.855 9.8125 8.75 C7.10512367 4.75378284 4.29896945 3.10733797 0 1 C0 0.67 0 0.34 0 0 Z " fill="#DC7158" transform="translate(188,123)"/>
<path d="M0 0 C0.66 0 1.32 0 2 0 C2.33 1.32 2.66 2.64 3 4 C4.65 3.67 6.3 3.34 8 3 C6.35 4.98 4.7 6.96 3 9 C2.01 8.67 1.02 8.34 0 8 C-0.38063221 5.6739143 -0.71269945 3.33944736 -1 1 C-0.67 0.67 -0.34 0.34 0 0 Z " fill="#092B38" transform="translate(145,128)"/>
<path d="M0 0 C3.59058187 1.19686062 4.10318984 2.20866581 6.125 5.3125 C6.64320313 6.09238281 7.16140625 6.87226562 7.6953125 7.67578125 C8.90472561 9.83027467 9.54728137 11.58734097 10 14 C9.01 14.495 9.01 14.495 8 15 C7.87625 14.030625 7.7525 13.06125 7.625 12.0625 C7.315625 10.5465625 7.315625 10.5465625 7 9 C6.34 8.67 5.68 8.34 5 8 C2.375 5.625 2.375 5.625 0 3 C0 2.01 0 1.02 0 0 Z " fill="#FDEFD3" transform="translate(160,72)"/>
<path d="M0 0 C2.88455894 0.41207985 3.87014892 0.85716381 5.875 3.0625 C7.92358207 5.32926906 7.92358207 5.32926906 11.25 5.25 C12.1575 5.1675 13.065 5.085 14 5 C13.67 5.99 13.34 6.98 13 8 C7.74568665 7.58789699 4.7645482 6.7645482 1 3 C0.67 2.01 0.34 1.02 0 0 Z " fill="#D9E6E7" transform="translate(125,185)"/>
<path d="M0 0 C1.65 0 3.3 0 5 0 C5.33 0.66 5.66 1.32 6 2 C5.34 2 4.68 2 4 2 C3.67 2.99 3.34 3.98 3 5 C2.01 6.485 2.01 6.485 1 8 C0.01 7.67 -0.98 7.34 -2 7 C-1.34 4.69 -0.68 2.38 0 0 Z " fill="#EDF6EA" transform="translate(176,145)"/>
<path d="M0 0 C2.125 0.9375 2.125 0.9375 4 2 C4 2.66 4 3.32 4 4 C4.99 4.33 5.98 4.66 7 5 C7 5.99 7 6.98 7 8 C6.01 8 5.02 8 4 8 C4 7.01 4 6.02 4 5 C2.02 5.33 0.04 5.66 -2 6 C-2 4.35 -2 2.7 -2 1 C-1.34 0.67 -0.68 0.34 0 0 Z " fill="#F1F4EA" transform="translate(77,202)"/>
<path d="M0 0 C0.721875 0.804375 1.44375 1.60875 2.1875 2.4375 C5.02515689 5.02292072 6.27166147 5.68042813 10 6 C9.34 6.66 8.68 7.32 8 8 C2.54545455 7.54545455 2.54545455 7.54545455 0 5 C-0.125 2.375 -0.125 2.375 0 0 Z M3 2 C4.32 2.33 5.64 2.66 7 3 C7 3.66 7 4.32 7 5 C5.68 4.34 4.36 3.68 3 3 C3 2.67 3 2.34 3 2 Z " fill="#0F2B38" transform="translate(62,201)"/>
<path d="M0 0 C2 3 2 3 1.7578125 5.48046875 C1.54898438 6.37378906 1.34015625 7.26710937 1.125 8.1875 C0.92132813 9.08855469 0.71765625 9.98960937 0.5078125 10.91796875 C0.34023437 11.60503906 0.17265625 12.29210937 0 13 C-1.32 12.67 -2.64 12.34 -4 12 C-2.68 8.04 -1.36 4.08 0 0 Z " fill="#1C3947" transform="translate(150,174)"/>
<path d="M0 0 C4.17858365 3.71429658 7.17846829 7.64185802 9 13 C8.67 13.66 8.34 14.32 8 15 C5.31874582 12.61753661 3.88576541 10.1454496 2.3125 6.9375 C1.87550781 6.05964844 1.43851563 5.18179688 0.98828125 4.27734375 C0 2 0 2 0 0 Z " fill="#DDA553" transform="translate(199,76)"/>
<path d="M0 0 C1.2065625 0.0309375 1.2065625 0.0309375 2.4375 0.0625 C1.4375 2.0625 1.4375 2.0625 -1.375 3.1875 C-6.66380165 4.60374814 -12.13561679 4.22290049 -17.5625 4.0625 C-17.5625 3.7325 -17.5625 3.4025 -17.5625 3.0625 C-16.56347656 2.92972656 -15.56445312 2.79695312 -14.53515625 2.66015625 C-13.24480469 2.48355469 -11.95445313 2.30695313 -10.625 2.125 C-9.33722656 1.95097656 -8.04945313 1.77695313 -6.72265625 1.59765625 C-3.56478463 1.06288689 -3.03631574 0.07405648 0 0 Z " fill="#091D29" transform="translate(139.5625,138.9375)"/>
<path d="M0 0 C0.66 0 1.32 0 2 0 C4.03120707 3.04681061 4.24659875 3.60118324 4.1953125 7.01171875 C4.18886719 7.76904297 4.18242187 8.52636719 4.17578125 9.30664062 C4.15902344 10.09232422 4.14226562 10.87800781 4.125 11.6875 C4.11597656 12.48478516 4.10695312 13.28207031 4.09765625 14.10351562 C4.07411585 16.069139 4.03824547 18.03460775 4 20 C3.67 20 3.34 20 3 20 C2.92652344 18.71416016 2.92652344 18.71416016 2.8515625 17.40234375 C2.45465756 11.33243544 2.00791601 5.75602589 0 0 Z " fill="#E7A95E" transform="translate(171,86)"/>
<path d="M0 0 C1.89551022 -0.05441656 3.7914792 -0.09298035 5.6875 -0.125 C6.74324219 -0.14820313 7.79898438 -0.17140625 8.88671875 -0.1953125 C12.02251859 0.00141271 14.17645373 0.66942346 17 2 C17 2.33 17 2.66 17 3 C11.08739655 3.25706972 5.76081841 2.2982126 0 1 C0 0.67 0 0.34 0 0 Z " fill="#E1A550" transform="translate(164,61)"/>
<path d="M0 0 C0 0.99 0 1.98 0 3 C-0.474375 3.45375 -0.94875 3.9075 -1.4375 4.375 C-3.44583349 6.46366683 -3.61869524 8.1783448 -4 11 C-4.33 10.34 -4.66 9.68 -5 9 C-5.66 9 -6.32 9 -7 9 C-7.33 9.66 -7.66 10.32 -8 11 C-8.33 10.01 -8.66 9.02 -9 8 C-8.43410156 7.50628906 -7.86820313 7.01257813 -7.28515625 6.50390625 C-6.55167969 5.86324219 -5.81820312 5.22257813 -5.0625 4.5625 C-4.33160156 3.92441406 -3.60070312 3.28632813 -2.84765625 2.62890625 C-1.87860647 1.77458541 -0.91348825 0.91348825 0 0 Z " fill="#DEE7E5" transform="translate(155,129)"/>
<path d="M0 0 C0.886875 0.495 1.77375 0.99 2.6875 1.5 C5.87586238 2.94378674 7.58187546 3.30159922 11 3 C10.67 3.66 10.34 4.32 10 5 C9.34 5 8.68 5 8 5 C7.67 5.99 7.34 6.98 7 8 C4.36 6.02 1.72 4.04 -1 2 C-0.67 1.34 -0.34 0.68 0 0 Z " fill="#E9F3EC" transform="translate(145,67)"/>
<path d="M0 0 C2.97 0 5.94 0 9 0 C9 0.66 9 1.32 9 2 C11.31 2.33 13.62 2.66 16 3 C16 3.66 16 4.32 16 5 C10.72 3.68 5.44 2.36 0 1 C0 0.67 0 0.34 0 0 Z " fill="#E9F1EC" transform="translate(123,61)"/>
<path d="M0 0 C4.43090471 1.20842856 6.98112756 2.51668565 10 6 C9.01 6.495 9.01 6.495 8 7 C7.4225 6.525625 6.845 6.05125 6.25 5.5625 C4.07417916 4.0515133 2.57397552 3.45963849 0 3 C0 2.01 0 1.02 0 0 Z " fill="#E3EFED" transform="translate(132,80)"/>
<path d="M0 0 C2.97 0 5.94 0 9 0 C9 1.65 9 3.3 9 5 C8.34 4.67 7.68 4.34 7 4 C7 3.34 7 2.68 7 2 C4.36 2 1.72 2 -1 2 C-0.67 1.34 -0.34 0.68 0 0 Z " fill="#EEFBF3" transform="translate(185,195)"/>
<path d="M0 0 C2.0625 1.5625 2.0625 1.5625 4 4 C3.75 7.75 3.75 7.75 3 11 C2.01 11.33 1.02 11.66 0 12 C0.09539062 11.37351562 0.19078125 10.74703125 0.2890625 10.1015625 C0.39992187 9.28429687 0.51078125 8.46703125 0.625 7.625 C0.74101562 6.81289062 0.85703125 6.00078125 0.9765625 5.1640625 C0.98429688 4.44992188 0.99203125 3.73578125 1 3 C0.34 2.34 -0.32 1.68 -1 1 C-0.67 0.67 -0.34 0.34 0 0 Z " fill="#10262E" transform="translate(131,97)"/>
<path d="M0 0 C0.33 0 0.66 0 1 0 C1.06058594 0.60328125 1.12117187 1.2065625 1.18359375 1.828125 C1.26738281 2.62734375 1.35117188 3.4265625 1.4375 4.25 C1.55931641 5.43335937 1.55931641 5.43335937 1.68359375 6.640625 C1.97634993 8.82364639 2.42064419 10.8773182 3 13 C1.02 13.99 1.02 13.99 -1 15 C-0.67 10.05 -0.34 5.1 0 0 Z " fill="#D2DBD5" transform="translate(164,99)"/>
<path d="M0 0 C1.65 0 3.3 0 5 0 C4.01 2.97 3.02 5.94 2 9 C1.67 9 1.34 9 1 9 C0.67 6.03 0.34 3.06 0 0 Z " fill="#EAF4F0" transform="translate(154,151)"/>
<path d="M0 0 C0.66 0 1.32 0 2 0 C1.5205537 4.21912747 0.83374881 6.79663178 -2 10 C-3 8 -3 8 -2.44140625 6.0546875 C-2.15136719 5.33539063 -1.86132812 4.61609375 -1.5625 3.875 C-1.27503906 3.15054688 -0.98757812 2.42609375 -0.69140625 1.6796875 C-0.46324219 1.12539062 -0.23507813 0.57109375 0 0 Z " fill="#FDE9D6" transform="translate(171,112)"/>
<path d="M0 0 C0.99 0.33 1.98 0.66 3 1 C3.70381157 2.98723268 4.3711811 4.98777953 5 7 C5.66 7.33 6.32 7.66 7 8 C5.68 8 4.36 8 3 8 C3 7.01 3 6.02 3 5 C2.01 5 1.02 5 0 5 C0 3.35 0 1.7 0 0 Z " fill="#EF9F24" transform="translate(192,72)"/>
<path d="M0 0 C1.60332791 -0.08121924 3.20784026 -0.13929134 4.8125 -0.1875 C6.15248047 -0.23970703 6.15248047 -0.23970703 7.51953125 -0.29296875 C10.41647515 0.04918998 11.22555028 0.75393573 13 3 C12.01 3.495 12.01 3.495 11 4 C9.32700041 3.34938905 7.66140763 2.67966676 6 2 C4.0075675 1.62406934 2.0081326 1.28020455 0 1 C0 0.67 0 0.34 0 0 Z " fill="#FDEDC1" transform="translate(170,60)"/>
<path d="M0 0 C3.25696479 0.41755959 4.63443291 0.63443291 7 3 C7 3.99 7 4.98 7 6 C1.25 4.375 1.25 4.375 -1 1 C-0.67 0.67 -0.34 0.34 0 0 Z " fill="#1A3641" transform="translate(121,201)"/>
<path d="M0 0 C2.88437779 1.29299694 4.87219421 2.65941363 7 5 C5.1875 5.625 5.1875 5.625 3 6 C2.01 5.34 1.02 4.68 0 4 C0 2.68 0 1.36 0 0 Z " fill="#B0C9BE" transform="translate(184,129)"/>
<path d="M0 0 C2.31 0.33 4.62 0.66 7 1 C7.33 2.65 7.66 4.3 8 6 C4.942048 4.26440562 2.36620011 2.61527381 0 0 Z " fill="#FBEECC" transform="translate(188,66)"/>
<path d="M0 0 C1.98 0.495 1.98 0.495 4 1 C4.33 2.32 4.66 3.64 5 5 C4.01 5.66 3.02 6.32 2 7 C1.01 6.34 0.02 5.68 -1 5 C-0.01 4.01 0.98 3.02 2 2 C1.34 1.34 0.68 0.68 0 0 Z " fill="#1C3B47" transform="translate(70,201)"/>
<path d="M0 0 C1.32 0 2.64 0 4 0 C3 3 3 3 1.125 4.25 C-1 5 -1 5 -4 4 C-3.34 4 -2.68 4 -2 4 C-1.34 2.68 -0.68 1.36 0 0 Z " fill="#0D2530" transform="translate(146,202)"/>
<path d="M0 0 C0.99 0.33 1.98 0.66 3 1 C2.625 3.9375 2.625 3.9375 2 7 C1.01 7.495 1.01 7.495 0 8 C-0.66 6.68 -1.32 5.36 -2 4 C-1.34 3.34 -0.68 2.68 0 2 C0 1.34 0 0.68 0 0 Z " fill="#F6EFDD" transform="translate(193,127)"/>
<path d="M0 0 C0.99 0 1.98 0 3 0 C3 0.99 3 1.98 3 3 C4.98 3 6.96 3 9 3 C9 3.33 9 3.66 9 4 C5.7 4 2.4 4 -1 4 C-0.67 2.68 -0.34 1.36 0 0 Z " fill="#E7F6EC" transform="translate(173,125)"/>
<path d="M0 0 C2.50298434 2.93828597 3.46930939 5.17902761 4 9 C3.01 9 2.02 9 1 9 C-0.4783226 6.04335481 -0.06032783 3.25770263 0 0 Z " fill="#FAEAD1" transform="translate(170,86)"/>
<path d="M0 0 C0.66 0.99 1.32 1.98 2 3 C1.34 4.32 0.68 5.64 0 7 C-0.99 7 -1.98 7 -3 7 C-3.33 5.68 -3.66 4.36 -4 3 C-3.01 3 -2.02 3 -1 3 C-0.67 2.01 -0.34 1.02 0 0 Z " fill="#183B4F" transform="translate(124,184)"/>
<path d="M0 0 C1.4535556 2.90711121 0.71133997 4.89597103 0 8 C-0.66 8.66 -1.32 9.32 -2 10 C-2.6875 8.375 -2.6875 8.375 -3 6 C-1.5625 2.75 -1.5625 2.75 0 0 Z " fill="#153042" transform="translate(160,185)"/>
<path d="M0 0 C1.32 0.66 2.64 1.32 4 2 C4 2.66 4 3.32 4 4 C4.66 4 5.32 4 6 4 C5.67 4.99 5.34 5.98 5 7 C5 6.34 5 5.68 5 5 C4.38125 4.896875 3.7625 4.79375 3.125 4.6875 C1 4 1 4 -1 1 C-0.67 0.67 -0.34 0.34 0 0 Z " fill="#FCF1DF" transform="translate(197,71)"/>
<path d="M0 0 C1 3 1 3 0.22265625 4.82421875 C-0.8515625 6.54947917 -1.92578125 8.27473958 -3 10 C-4.36682561 7.26634878 -3.84683011 5.89333621 -3 3 C-1.4375 1.1875 -1.4375 1.1875 0 0 Z " fill="#DB5C40" transform="translate(207,121)"/>
<path d="M0 0 C2.375 0.3125 2.375 0.3125 5 1 C5.66 1.99 6.32 2.98 7 4 C6.67 4.99 6.34 5.98 6 7 C5.34 6.01 4.68 5.02 4 4 C3.01 3.67 2.02 3.34 1 3 C0.67 2.01 0.34 1.02 0 0 Z " fill="#E1A738" transform="translate(162,72)"/>
<path d="M0 0 C2.31 0.33 4.62 0.66 7 1 C7 1.99 7 2.98 7 4 C4.97954558 3.39816251 2.97888961 2.72693904 1 2 C0.67 1.34 0.34 0.68 0 0 Z " fill="#0D2E39" transform="translate(132,65)"/>
<path d="M0 0 C1.68762851 1.6454378 3.3540349 3.31288577 5 5 C5 5.33 5 5.66 5 6 C3.35 6 1.7 6 0 6 C-0.38218767 4.34385343 -0.71395102 2.67542976 -1 1 C-0.67 0.67 -0.34 0.34 0 0 Z " fill="#EBF2EB" transform="translate(59,202)"/>
<path d="M0 0 C-0.66 1.98 -1.32 3.96 -2 6 C-2.99 6 -3.98 6 -5 6 C-5 3 -5 3 -3.625 1.3125 C-2 0 -2 0 0 0 Z " fill="#E1F0EF" transform="translate(148,181)"/>
<path d="M0 0 C1.0625 1.875 1.0625 1.875 2 4 C1.67 4.66 1.34 5.32 1 6 C-1.0625 6.625 -1.0625 6.625 -3 7 C-1.125 2.25 -1.125 2.25 0 0 Z " fill="#FBE3CE" transform="translate(205,128)"/>
<path d="M0 0 C0.99 0 1.98 0 3 0 C2.67 1.98 2.34 3.96 2 6 C1.01 5.67 0.02 5.34 -1 5 C-0.67 3.35 -0.34 1.7 0 0 Z " fill="#FBE8D5" transform="translate(209,118)"/>
<path d="M0 0 C2 2 2 2 2.125 5.625 C2.08375 6.73875 2.0425 7.8525 2 9 C1.34 8.67 0.68 8.34 0 8 C-0.6875 4.5 -0.6875 4.5 -1 1 C-0.67 0.67 -0.34 0.34 0 0 Z " fill="#FEF5CA" transform="translate(210,91)"/>
<path d="M0 0 C0.99 0 1.98 0 3 0 C3.66 1.65 4.32 3.3 5 5 C4.01 5.33 3.02 5.66 2 6 C1.34 4.02 0.68 2.04 0 0 Z " fill="#E4E6E6" transform="translate(158,81)"/>
</svg>
