<!DOCTYPE svg PUBLIC "-//W3C//DTD SVG 1.1//EN" "http://www.w3.org/Graphics/SVG/1.1/DTD/svg11.dtd"><svg xmlns="http://www.w3.org/2000/svg" xmlns:xlink="http://www.w3.org/1999/xlink"><symbol class="aicon" viewBox="0 0 1024 1024" fill="currentColor" id="edit"><path d="M1014.642 150.772c-7.923 28.292-14.956 54.581-34.507 70.42-171.054 138.593-308.162 310.68-463.298 464.871-4.074 4.061-8.949 7.641-11.991 12.379C438.917 801.27 323.584 814.387 222.65 853.093c-21.67 8.3-55.57-30.316-49.069-53.263 18.317-64.627 36.254-129.378 55.954-193.592 3.332-10.863 13.737-20.27 22.483-28.673 147.544-141.694 295.884-282.56 442.692-425.014 35.012-33.975 65.363-72.802 97.388-109.813 43.243-49.963 103.691-53.987 150.811-7.654 28.364 27.89 62.838 52.147 69.349 96.114.846 5.7 1.756 11.387 2.64 17.076 2.149 1.29-2.409 1.207-.257 2.497zm-268.377 47.262c-143.031 143.31-285.798 286.353-425.513 426.335 24.065 24.382 50.698 51.374 73.962 74.938C537.552 559.559 681.67 418.571 825.075 278.281c-29.209-29.747-55.809-56.826-78.809-80.248zm34.166-60.566 103.078 98.73c6.533-8.912 12.87-19.914 21.406-28.782 61.69-64.018 61.828-63.88-3.146-125.401-1.389-1.318-2.658-2.784-4.08-4.063-17.97-16.119-36.193-16.301-53.943-.005-20.473 18.801-40.525 38.055-63.316 59.521zM250.913 775.782c32.921-13.26 58.889-23.713 81.104-32.654-17.064-20.07-32.667-38.427-51.038-60.045-10.237 31.532-18.925 58.35-30.067 92.699zm206.412 234.836c-95.18 0-190.363.146-285.55-.065-52.12-.109-98.169-14.202-133.136-56.247-23.055-27.724-29.593-59.946-29.642-94.142-.291-189.403-1.034-378.814.219-568.217.664-101.677 63.442-162.274 165.278-162.868 102.874-.599 205.757-.022 308.627-.226 22.538-.043 44.021 1.736 46.9 30.199 2.109 20.825-14.922 31.334-48.338 31.361-99.987.084-199.985-.147-299.974.094-71.519.181-112.147 41.233-112.165 112.856-.072 182.666-.089 365.333-.043 547.999.01 56.514 38.085 96.863 95.137 97.074 195.173.735 390.353.596 585.525.129 46.174-.104 76.086-33.055 76.29-83.051.51-124.969.241-249.947.433-374.927.017-9.542-2.207-21.578 2.57-28.067 8.038-10.926 21.765-26.173 31.426-25.058 10.109 1.164 19.003 18.963 26.809 30.577 2.697 4.002.62 11.255.62 17.019.011 124.028.17 248.059-.049 372.085-.182 104.429-49.419 153.352-154.028 153.468-92.305.096-184.61.022-276.91.011zm0 0z"/></symbol><symbol class="bicon" viewBox="0 0 1024 1024" fill="currentColor" id="next"><path d="m948.064 513.056-412 412.256a47.296 47.296 0 0 1-66.88-66.88l345.504-345.504L467.52 165.76a47.296 47.296 0 0 1 66.88-66.88l38.688 38.688-.256.256 375.264 375.264m-378.336-.032-412 412.256a47.296 47.296 0 0 1-66.88-66.88l345.472-345.504L89.184 165.76a47.296 47.296 0 0 1 66.88-66.88l38.688 38.688-.256.256L569.76 513.088"/></symbol><symbol class="cicon" viewBox="0 0 1024 1024" fill="currentColor" id="prev"><path d="M62.56 511.904 485.952 88.256a48.64 48.64 0 0 1 68.736 68.736L199.616 512.064l356.8 356.8A48.64 48.64 0 0 1 487.68 937.6l-39.744-39.744.256-.256L62.528 511.936zm388.8 0L874.752 88.256a48.64 48.64 0 0 1 68.736 68.736L588.416 512.064l356.8 356.8A48.64 48.64 0 0 1 876.48 937.6l-39.776-39.744.288-.256-385.664-385.664z"/></symbol></svg>